<?xml version="1.0" encoding="UTF-8"?><svg id="a" xmlns="http://www.w3.org/2000/svg" viewBox="0 0 469.4808 480.8135"><defs><style>.b{fill:#D3DFB8;}</style></defs><path class="b" d="M468.5148,149.9885c-.941-14.9057-7.252-29.2947-18.5974-39.0079-3.0124-2.5786-6.3582-4.8677-9.9957-6.5168-19.0768-8.6493-41.4062-3.8178-56.0626,6.9-21.8016,15.9428-25.1335,43.8193-25.8749,50.0251-2.7713,23.1875,1.1082,31.9617-3.4502,46.5749-2.1617,6.9308-13.4053,8.0653-21.5626,6.9-12.0749-1.7251-5.3712-25.364-3.7098-44.7517,1.9243-22.4518,2.7963-44.3105,2.8472-70.8233,.0444-22.9763-1.767-48.5526-19.8375-69.8626C286.8589-.5425,245.9427-.3548,235.5087,.1012c-2.2599,.0986-49.5286,2.9232-79.3503,41.4-18.7276,24.1634-20.4811,49.3638-23.2873,89.7001-3.3492,48.1325-2.317,92.5535,4.5682,130.5279,.9817,5.4148-12.8697,.1696-14.6749-.559-21.5005-8.674-28.8351-39.532-29.7999-45.484-1.7764-10.9552-.7952-23.4109,1.5682-72.1475,1.6972-34.9954,.5865-42.1299-4.705-48.6208-10.3835-12.7354-31.3743-16.2566-47.0526-10.9791-21.6509,7.2886-34.7038,29.3843-37.6422,50.1894C-6.5131,216.589-1.9609,300.1715,57.3005,344.5892c11.4107,8.5524,44.2937,24.1096,67.0322,18.528,10.4882-2.5745,19.6641-7.5827,25.0949-3.1368,5.3293,4.3633,2.7524,14.3122,1.5682,25.0949-2.5018,22.7775,1.5111,46.5417,7.8422,59.5999,10.5083,21.6743,38.7577,37.2729,67.4421,36.0736,33.9989-1.4216,60.6945-25.5673,67.4417-48.6212,19.4119-66.3261,8.644-118.0965,12.5119-120.6636,4.1296-2.7409,11.3463,3.3249,19.8375,7.7626,25.4313,13.2911,52.9903,7.1132,57.7877,6.0375,23.4869-5.2653,37.9285-20.8984,45.7124-29.3251,17.3529-18.7847,22.9439-37.5379,31.9128-69.0001,9.3554-32.8168,8.6276-51.648,7.0306-76.9503h0ZM56.201,128.1757c1.2918-7.696,1.0745-18.8652,9.1073-18.8652,7.848,0,6.4613,8.3655,5.8547,18.8652-2.747,47.5344-6.1964,61.0428-.6506,90.4234,.8461,4.4824,6.4424,32.1527,28.6232,52.6925,22.5898,20.9185,48.1386,14.8733,48.139,26.0211,0,9.4737-30.8601,9.9732-53.7337-7.3555-23.4659-17.7768-33.1302-39.6799-39.9423-72.6593-2.9598-14.3295-4.949-44.1335,2.6024-89.1222h0Zm94.677,207.2934c-1.3283,7.0828-30.3524,7.9552-42.4901,5.7409-36.7595-6.7057-53.9498-27.1593-63.3569-43.7417-4.1838-7.3752-7.8615-13.6074-13.7014-30.3084-4.744-13.5671-10.3613-54.4734-11.0538-98.3979-.3873-24.57,.7619-34.5017,4.4056-48.0421,3.0025-11.1577,9.6446-24.2804,18.1469-21.3987,4.2187,1.4298,1.8997,11.7274-.032,16.8247-7.3678,19.444-6.3993,54.5453-6.2309,70.2056,.7923,73.6426,22.3417,103.7519,26.7913,110.3105,12.827,18.9063,26.5715,26.0162,44.1031,29.7728,17.9222,3.8404,45.4742-1.9313,43.4184,9.0342h-.0002Zm37.4298-31.0362c4.9313,65.9893,8.9077,100.148,8.9077,100.1484,3.4161,29.3457,9.132,46.2036,2.8887,47.9074-9.8019,2.6751-17.4544-19.4846-20.2223-39.4815-9.1467-66.0813-12.553-157.5451-12.2778-207.2782,.0563-10.1847-2.0015-46.1552,7.4631-116.7591,2.1404-15.9683,6.1594-29.5564,12.2778-44.7779,8.6999-21.6447,26.222-32.717,31.8499-27.8267,5.736,4.9839-1.2408,10.4221-12.8315,34.8081-14.3919,30.2801-21.0163,84.1999-20.9444,155.7596,.0324,32.1005,.06,59.6438,2.8887,97.5h0ZM252.632,57.1298c-7.9166,50.5969-9.7156,67.2154-15.091,145.338-6.3135,91.764-4.3801,159.5286-.5487,224.3789,.5253,8.8925,2.2689,25.2485-4.6319,26.4697-9.5472,1.6894-9.8668-24.6127-10.588-33.0871-8.1088-95.2902-8.0382-173.2505-.5315-269.2863,0-.0008,8.9644-135.7217,25.7521-133.0031,13.0414,2.1116,6.5291,33.5003,5.639,39.1898h0Zm47.3126,97.4101c-10.9556,111.514-11.7923,158.4837-22.3023,253.382-3.2798,29.6135-9.1229,39.6314-13.9393,39.3389-4.8007-.2916-6.4478-9.6532-4.6463-36.5513,7.6989-114.979,21.7458-180.5933,23.8512-258.6477,1.6039-59.4602-6.6215-88.9768-12.0807-107.1762-1.8459-6.1541-7.2836-23.2708-3.7172-25.0904,3.7472-1.9112,15.9178,13.7869,17.3467,16.7269,18.344,37.751,18.2389,90.0159,15.4877,118.0176l.0002,.0002Zm10.5125,81.383c3.6626-6.5611,13.1761-3.2247,16.8411-.5262,11.2555,8.2871,15.6586,9.7756,23.1566,9.9994,11.3545,.3389,23.6664-14.3677,26.3144-25.7883,4.5978-19.8292,3.8712-30.4604,6.983-50.3993,3.566-22.8469,13.4496-45.3324,20.3842-40.1226,7.9823,5.9976-3.3907,8.8457-6.0506,41.2123-1.6972,20.6503-1.1616,37.5452-2.8961,50.8885-1.9703,15.1534-11.4062,35.3318-36.1134,38.8111-24.867,3.5016-52.9521-16.3141-48.6192-24.0751v.0002Zm126.7549-6.4659c-6.0785,30.1901-30.2793,74.2304-76.9672,76.3502-29.0898,1.3209-59.0975-20.4696-51.9416-28.9583,7.1173-8.4432,32.6628,7.3206,50.1689,6.7484,39.5928-1.293,54.9487-29.0183,60.8456-50.1463,14.3529-51.4221,3.2218-102.9982,15.392-105.9916,13.74-3.38,12.8947,50.3796,2.5022,101.9976h0Z"/></svg>