<?xml version="1.0" encoding="UTF-8"?><svg id="a" xmlns="http://www.w3.org/2000/svg" viewBox="0 0 1484.0031 599.5"><defs><style>.d{fill:#fff;}.e{fill:#c2d7b3;}.f{fill:#d4e0ca;}.g{fill:#5d6d4e;}.h{fill:#c3ff00;stroke:#5d6d4e;stroke-miterlimit:10;stroke-width:6px;}</style></defs><g id="b"><g><path class="e" d="M233.6016,596.3l-.8-1.7c-.4-.7-8.8-18.5-9.9-43.4-.9-23.1,4.6-56.8,36.7-86.4,26.2-24.2,5.2-107.5-17-195.7-13.3-52.9-27.1-107.6-31.9-154.2-5.6-53.6,1.9-88.3,22.9-106.2,4.5-3.9,10.8-5.8,18.6-5.8,33.7,0,92.7,36,136.2,66.3,50.4,35,99.4,75.7,119.9,96.2,2,2,2.6,2.5,5.5,2.5,2.4,0,6-.4,11.5-1,22.6-2.4,75.5-7.9,218-7.9,138.5,0,190.9,6.1,213.2,8.7,5.7,.7,9.5,1.1,12,1.1,3.1,0,3.8-.5,6.5-3.2,20.5-20.5,69.5-61.2,119.9-96.2,43.6001-30.2,102.6001-66.2,136.2001-66.2,7.8,0,14.1,2,18.6,5.8,21,17.8,28.5,52.6,22.9,106.2-4.9,46.6-18.6,101.3-31.9,154.2-22.2,88.2-43.2,171.5-17,195.7,32,29.6,37.6,63.3,36.7,86.4-1,24.9-9.5,42.7-9.9,43.4l-.8,1.7-1016.0999-.3001h0Z"/><path class="f" d="M252.2016,6c60.1,0,213.9,121.5,253.9999,161.6,2.4,2.4,3.7,3.4,7.6,3.4,12.2,0,50.1-8.9,229.5-8.9,175.4,0,212.7,9.8,225.2,9.8,4.2,0,5.6-1.1,8.6-4,40.1001-40.3,193.9001-161.7,254.0001-161.7,6.9,0,12.6,1.6,16.7,5.1,83.6,71-85.9,400.7-26.1,456,60.4,55.8,26.1,126.3,26.1,126.3l-1012.4-.2s-34.2-70.5,26.1-126.3c59.8-55.3-109.7-384.9-26.1-456,4.2001-3.5,9.9001-5.1,16.8001-5.1m0-6h0c-8.5,0-15.5,2.2-20.6,6.5-11.8,10-19.6,25.2-23.2,45.1-3.2,17.2-3.4,38-.7,63.7,4.9,46.8,18.7,101.6,32,154.6,11.4,45.2,22.1,87.8,26.7,122.7,4.9,37.1,2,60-8.9,70-14.5,13.4-24.9,28.7-31.1,45.6-4.9,13.5-7.1,28-6.5,43.1,1.1,25.5,9.8,43.8,10.2,44.6l1.6,3.4h3.8l1012.4,.2h3.8l1.6-3.4c.4-.8,9.1-19,10.2-44.6,.6-15.1-1.6-29.6-6.5-43.1-6.2-16.9-16.6-32.2-31.1-45.6-10.8-10-13.7-32.9-8.9-70,4.6-34.9,15.3-77.6,26.7-122.7,13.3-53,27.1-107.8,32-154.6,2.7-25.7,2.4-46.5-.7-63.7-3.7-19.9-11.5-35.1-23.2-45.1-5.1-4.3-12-6.5-20.6-6.5-34.4,0-94,36.3-137.9,66.8-50.5,35.1-99.7,75.9-120.3,96.5-1.5,1.5-3,2.3-4.3,2.3-2.3,0-6-.4-11.6-1.1-22.4-2.6-74.9-8.7-213.6-8.7-142.6,0-195.6,5.6-218.3,8-5.4,.6-9,1-11.2,1-1.2,0-2.3-.5-3.4-1.6-20.6-20.6-69.8-61.4-120.3-96.5C346.2015,36.3,286.6016,0,252.2016,0h0Z"/></g><g><g><path class="e" d="M13.9016,596.3l.1-3.1c-.1-.7-1.3-3.3-2.3-5.4-5.8-12.3-17.8-37.9,3.1-61.5,19.3-21.8,47.9-34.3,78.4-34.3,32.1,0,61.6,14,81.1,38.4,17.4,21.7,7.4,46.1,2.6,57.8-.9,2.1-1.9,4.5-1.9,5.2l-.2,2.8H13.9016v.1Z"/><path class="f" d="M93.2016,495.1c29.2,0,58.6,12,78.8,37.3,20.4,25.5,.4,55.2,0,61H17.0016c.2-5.6-24.9-36.9,0-65,19.3-21.9,47.6-33.3,76.2-33.3m0-6c-31.4,0-60.8,12.9-80.7,35.3-9.6,10.8-13.7,23.5-12.2,37.5,1.2,11.3,5.7,20.9,8.7,27.2,.8,1.6,1.7,3.7,2,4.6l-.2,5.7H177.6016l.4-5.4c.2-.7,1-2.8,1.7-4.5,2.5-6,6.2-15.2,7.2-25.8,1.2-13.2-2.2-25-10.2-35.1-20.1-25.1-50.5-39.5-83.5-39.5h0Z"/></g><g><path class="e" d="M57.1016,593.3s-16.1-33-10.1-55"/><path class="f" d="M54.4016,594.6c-6.5-16.6-12.7-38.8-7.4-56.3-1.9,9.3-.2,18.8,2.3,27.8,2.6,8.9,6.2,17.8,10.6,25.9,1.8,3.7999-3.7,6.4-5.4999,2.6h0Z"/></g><g><path class="e" d="M130.5016,593.1s16.1-33,10.1-55"/><path class="f" d="M127.8016,591.8c6.4-12.3,11.7-25.7,13.3-39.6,.5-4.7,.5-9.4-.5-14.1,1.5,4.5,2,9.4,2,14.2-.2,14.5-4.1,28.7-9.4,42.2-1.7999,3.7999-7.4,1.1-5.4-2.7001h0Z"/></g><g><path class="e" d="M93.6016,592.5s-3.4-41.7,0-54.2"/><path class="f" d="M90.6016,592.8c-.2-15.9-.4-31.9,1.6-47.8,.3-2.3,.8-4.5,1.4-6.7-.2,1.1-.4,2.2-.5,3.4-.6,7.9,0,15.8,.5,23.7,.7,9,1.7,18,2.9,26.9,.5,4.1-5.7,4.7-5.9,.4999h0Z"/></g></g><g><g><path class="e" d="M1467.0016,596.3h-157.8l-.2-2.8c-.1001-.7-1-3.1-1.8999-5.2-4.8-11.7-14.8-36.1,2.6001-57.8,19.5-24.4,49.1001-38.4,81.1001-38.4,30.6001,0,59.1001,12.5,78.3999,34.3,20.8999,23.6,8.8,49.2,3.1001,61.5-1,2.1-2.2,4.8-2.3,5.5l.1001,3.1-3.1003-.2Z"/><path class="f" d="M1390.8016,495.1c28.6001,0,56.8999,11.5,76.2,33.3,24.8999,28.1-.2,59.4,0,65h-155c-.3999-5.8-20.4-35.5,0-61,20.2-25.4,49.6001-37.3,78.8-37.3m0-6v0h0c-33,0-63.3999,14.4-83.5,39.5-8,10-11.5,21.8-10.2,35.1,1,10.6,4.7,19.7,7.2,25.8,.7,1.7,1.5,3.7,1.7,4.5l.3999,5.4h166.8l-.2-5.7c.3-.9,1.2-2.9,2-4.6,3-6.3,7.5-15.9,8.7-27.2,1.5-14-2.6001-26.7-12.2-37.5-19.8999-22.5-49.3-35.3-80.7-35.3h0Z"/></g><g><path class="e" d="M1426.9015,593.3s16.1001-33,10.1001-55"/><path class="f" d="M1424.2015,592c6.3999-12.3,11.7-25.7,13.3-39.6,.5-4.7,.5-9.4-.5-14.1,1.5,4.5,2,9.4,2,14.2-.2,14.5-4.1001,28.7-9.3999,42.2-1.8,3.7999-7.4001,1.0999-5.4001-2.7001h0Z"/></g><g><path class="e" d="M1353.5016,593.1s-16.1001-33-10.1001-55"/><path class="f" d="M1350.8016,594.5c-6.5-16.6-12.7-38.8-7.3999-56.3-1.8999,9.3-.2,18.8,2.3,27.8,2.6001,8.9,6.2,17.8,10.6001,25.9,1.7998,3.7-3.7002,6.4-5.5002,2.6h0Z"/></g><g><path class="e" d="M1390.4015,592.5s3.3999-41.7,0-54.2"/><path class="f" d="M1387.4015,592.3c1.8999-14.5,3.5-29.2,3.7-43.8,0-3.4-.1001-6.8-.7-10.1,1.3,4.3,1.8,9,2.2,13.5,1.1001,13.6,1.1001,27.3,.8,41-.2,4-6.3999,3.6-6-.6h0Z"/></g></g></g><g id="c"><g><path class="h" d="M427.4016,441.9c1.2-1.1,3.1,3.1,9.9,3.6,12.8,.9,17.7-25.5,41.4-38.7,30.6-17.1,64.7-12.6,76.4-9.9,33.8,7.8,66.2,41.4,65.6,76.4-.2,10.2-2.7,22.5,.9,39.6,2.6,12.3,10.3,17,8.1,20.7-2.3,3.7-8.3,2-19.8,2.7-20.5,1.2-26.3,19.5-45,27.9-36,16.2-77.2-2.6-79.1-3.6-47.9-24.1-57.7-82-55.7-94.4,.1-.8,.5-2.6,.6-4.9s.1-5.3-.6-8.6c-1.9001-9.0001-3.7001-9.9001-2.7001-10.8001h0Z"/><circle class="g" cx="529.0016" cy="483.2" r="71"/><path class="g" d="M447.2015,442.8s-15.1,13-15.3,25.2l-3.6-24.3,18.9-.9Z"/><path class="g" d="M617.1016,494.9s-.6,33.1-17.1,40.5c-18,8.1,30.3,1.7,29.7-1.8-1.7999-10.8-12.6-38.7-12.6-38.7h0Z"/><path class="h" d="M1055.9016,442.8c-1.2-1.1-3.1,3.1-9.9,3.6-12.8,.9-17.7-25.5-41.4-38.7-30.6-17.1-64.7-12.6-76.4-9.9-33.8,7.8-66.2,41.4-65.6,76.4,.2,10.2,2.7,22.5-.9,39.6-2.6,12.3-10.3,17-8.1,20.7,2.3,3.7,8.3,2,19.8,2.7,20.5,1.2,26.3,19.5,45,27.9,36,16.2,77.2-2.6,79.1-3.6,47.9-24.1,57.7-82,55.7-94.4-.1-.8-.5-2.6-.6-4.9s-.1-5.3,.6-8.6c1.9-9.0001,3.7001-9.9001,2.7001-10.8h0Z"/><circle class="g" cx="954.3016" cy="484.1" r="71"/><path class="g" d="M1036.1016,443.7s15.1,13,15.3,25.2l3.6-24.3-18.9-.9Z"/><path class="g" d="M866.2015,495.8s.6,33.1,17.1,40.5c18,8.1-30.3,1.7-29.7-1.8,1.8-10.8,12.6-38.7,12.6-38.7h0Z"/><path class="d" d="M580.6016,468.5c-.2-3.2-1.5-6.2-4-8.3-.6-.5-1.4-1-2.1-1.4-4.1-1.8-8.8-.8-12,1.5-4.6,3.4-5.4,9.3-5.5,10.7-.6,4.9,.2,6.8-.7,9.9-.5,1.5-2.9,1.7-4.6,1.5-2.6-.4-1.1-5.4-.8-9.5,.4-4.8,.6-9.4,.6-15.1,0-4.9-.4-10.4-4.2-14.9-5.4-6.4-14.1-6.3-16.4-6.3-.5,0-10.6,.6-16.9,8.8-4,5.2-4.4,10.5-5,19.1-.7,10.3-.5,19.7,1,27.8,.2,1.2-2.7,0-3.1-.1-4.6-1.8-6.1-8.4-6.4-9.7-.4-2.3-.2-5,.3-15.4,.4-7.5,.1-9-1-10.4-2.2-2.7-6.7-3.5-10-2.3-4.6,1.6-7.4,6.3-8,10.7-2.5,17.6-1.5,35.4,11.1,44.9,2.4,1.8,9.4,5.1,14.3,4,2.2-.5,4.2-1.6,5.3-.7,1.1,.9,.6,3.1,.3,5.3-.5,4.9,.3,9.9,1.7,12.7,2.2,4.6,8.3,7.9,14.4,7.7,7.2-.3,12.9-5.5,14.4-10.4,4.1-14.1,1.8-25.2,2.7-25.7,.9-.6,2.4,.7,4.2,1.7,5.4,2.8,11.3,1.5,12.3,1.3,5-1.1,8.1-4.5,9.7-6.3,3.7-4,4.9-8,6.8-14.7,2.0999-7.0001,1.8999-11.0001,1.5999-16.4001h0Zm-87.9-4.7c.3-1.6,.2-4,1.9-4s1.4,1.8,1.2,4c-.6,10.1-1.3,13-.1,19.3,.2,1,1.4,6.9,6.1,11.2,4.8,4.5,10.3,3.2,10.3,5.5,0,2-6.6,2.1-11.5-1.6-5-3.8-7.1-8.5-8.5-15.5-.6-2.9-1-9.3,.6-18.9h0Zm20.2001,44.2c-.3,1.5-6.5,1.7-9.1,1.2-7.8-1.4-11.5-5.8-13.5-9.3-.9-1.6-1.7-2.9-2.9-6.5-1-2.9-2.2-11.6-2.4-21-.1-5.2,.2-7.4,.9-10.2,.6-2.4,2.1-5.2,3.9-4.6,.9,.3,.4,2.5,0,3.6-1.6,4.1-1.4,11.6-1.3,15,.2,15.7,4.8,22.1,5.7,23.5,2.7,4,5.7,5.5,9.4,6.3,3.8,.9,9.7001-.3,9.3,2h0Zm8-6.6c1.1,14.1,1.9,21.4,1.9,21.4,.7,6.3,1.9,9.9,.6,10.2-2.1,.6-3.7-4.2-4.3-8.4-1.9-14.1-2.7-33.6-2.6-44.2,0-2.2-.4-9.8,1.6-24.9,.5-3.4,1.3-6.3,2.6-9.5,1.9-4.6,5.6-7,6.8-5.9,1.2,1.1-.3,2.2-2.7,7.4-3.1,6.5-4.5,18-4.5,33.2-.1001,6.7-.1001,12.5999,.6,20.7h0Zm13.7-52.7c-1.7,10.8-2.1,14.3-3.2,31-1.3,19.6-.9,34-.1,47.8,.1,1.9,.5,5.4-1,5.6-2,.4-2.1-5.2-2.3-7.1-1.7-20.3-1.7-36.9-.1-57.4,0,0,1.9-28.9,5.5-28.4,2.7,.6,1.4,7.3,1.2,8.5h0Zm10.1,20.7c-2.3,23.8-2.5,33.8-4.8,54-.7,6.3-1.9,8.4-3,8.4-1-.1-1.4-2.1-1-7.8,1.6-24.5,4.6-38.5,5.1-55.1,.3-12.7-1.4-19-2.6-22.8-.4-1.3-1.6-5-.8-5.3,.8-.4,3.4,2.9,3.7,3.6,4.0002,7.8999,3.9001,19.0999,3.4001,24.9999h0Zm2.2001,17.4c.8-1.4,2.8-.7,3.6-.1,2.4,1.8,3.3,2.1,4.9,2.1,2.4,.1,5-3.1,5.6-5.5,1-4.2,.8-6.5,1.5-10.7,.8-4.9,2.9-9.7,4.3-8.6,1.7,1.3-.7,1.9-1.3,8.8-.4,4.4-.2,8-.6,10.8-.4,3.2-2.4,7.5-7.7,8.3-5.2001,.8-11.2001-3.4999-10.3-5.0999h0Zm27-1.4c-1.3,6.4-6.5,15.8-16.4,16.3-6.2,.3-12.6-4.4-11.1-6.2s7,1.6,10.7,1.4c8.4-.3,11.7-6.2,13-10.7,3.1-11,.7-22,3.3-22.6,2.9-.7,2.7,10.8,.5,21.8h0Z"/><path class="d" d="M989.8016,440.1c-2.9-6.2-8.4-6.6-14.1-3.5-4.5,2.4-5.4,6.7-5.2,10.5,.3,5,1.6,5.9,3.2,15.5,1.1,6.8,.6,9.3-.2,11.2-1.1,2.6-3.5,6.3-5.3,5.9-3-.7,.5-11.9-5.3-22.8-1.2-2.2-5.8-10.8-14.6-12.3-7.5-1.3-15.2,3.1-18.9,9-5.2,8.3-2.2,19.1,0,27.1,3.3,11.9,8.9,18.3,6.6,20.6-1.5,1.5-5.5,.7-7.8-1.5-3.3-3.1-1.3-7.2-4.1-10.3-3.3-3.7-11.7-4.2-15.7,.2-4.6,5.1-.7,13.8,.5,16.6,.4,.8,4.3,9.3,13,12.3,2.7,.9,9.2,3.2,15.3,.8,1.2-.5,3.4-1.5,4.6-.5,1,.8,.5,2.6,.6,4.3,.3,4.6,1.4,8.1,2.6,10.6,2,4.2,7.2,7.1,12.5,6.9,6.3-.3,11.3-4.9,12.5-9.3,3.6-12.7,.7-22.3,1.3-26.4,.5-2.8,20.8-6,24.5-22.7,3.2-13.7,.5-28.3-6-42.2h0Zm-72,49.7c.1,0,1.1,.1,1.9,3.2,1.3,5.2,1.9,7.3,2.9,9.8,2.3,5.6,11.4,4.5,12.9,4.2,1.8-.4,3.9-1.5,4.3-.1,.5,1.7-1.7,1.8-3.9,2.2-4.5,.9-11.8,1.7-15.2-3.6-1.8-2.8-3.1-7.8-3.4-11.5-.1002-1.2001-.7002-3.8,.4999-4.2h0Zm16.8999,26c-4,.3-10.4,.5-14.3-1.6-8-4.3-9.5-13.8-9.8-17.7-.3-3.8,.3-6.7,1.7-6.7s.2,2.7,.9,6.8c.3,1.8,1.8,10.9,8.2,14.7,3.3,1.9,6.9,1.9,12.8,1.8,4.1,0,6.6-.9,6.9,.3,.3002,1.8-1.6998,2.1-6.3999,2.4h0Zm16.2001,19.2c-2.3,.3-5.4-19-8.5-31.5-3.5-14-9.1-24-9.9-40.2-.3-5.6,1.6-12.1,3.1-11.8,2.2,.4-1.2,7,1.5,18.3,4.8,20.7,10,37.2,14.2,58.2,.2001,1.3,1.8,6.7-.3999,7h0Zm7.2,.4c-2,0-1.2-7.3-3.5-20.4-2.3-13.2-4.7-23.6-8.5-40.5-4.2-18.6-6.9-24.3-5.4-25.2,3.6-2.2,6.8,11.2,9.5,24.1,3.2,15.1,5.6,26.5,6.6,35.9,1.4,13,3.5001,26.1,1.3,26.1h0Zm6.7001-2.1c-4.4,.5,1.8-18.1-3.7-46.6-6.4-32.9-18.8-37.7-15.5-39,3.4-1.4,14.7,12.7,18.8,37,.7998,5.7,5.3999,48.1,.3999,48.6h0Zm2.6-45.5c-1.8-3.2,11.4-4.3,12.4-13.6,.7-6.4-.2-8.4-1.4-13.9-1.4-6-4.1-16.3-1.8-16.7,2.6-.5,3.7,9.9,4.9,16,1.3,6.3,2.7,10.4,1,16-3.1,9.5-14.2,13.9-15.1,12.2h0Zm22.9-7.3c-3.7,13.4-20.6,19.3-21.2,17-.8-3.3,8-3.8,14.5-12.4,.9-1.2,4.7-4.3,4.6-15.8-.2-16.1-9-26.9-7.1-28.1,2.7-1.9,9.3,11.3,10.3,27.4,.2998,4,.1998,7.3-1.1001,11.9h0Z"/></g></g></svg>