<?xml version="1.0" encoding="utf-8"?>
<!-- Generator: Adobe Illustrator 26.1.0, SVG Export Plug-In . SVG Version: 6.00 Build 0)  -->
<svg version="1.1" id="Layer_1" xmlns="http://www.w3.org/2000/svg" xmlns:xlink="http://www.w3.org/1999/xlink" x="0px" y="0px"
	 viewBox="0 0 56.23 56.23" style="enable-background:new 0 0 56.23 56.23;" xml:space="preserve">
<style type="text/css">
	.st0{fill:#86D0CB;}
	.st1{fill:none;stroke:#000000;stroke-width:0.75;stroke-linejoin:round;stroke-miterlimit:10;}
	.st2{stroke:#000000;stroke-width:0.75;stroke-linejoin:round;stroke-miterlimit:10;}
	.st3{fill:none;}
	.st4{font-family:'NotoSans';}
	.st5{font-size:10px;}
</style>
<g>
	<circle class="st0" cx="28.11" cy="28.23" r="24.81"/>
	<g>
		<g>
			<path class="st1" d="M26.47,20.92h4.57v-3.04c0-0.71-0.58-1.28-1.28-1.28h-7.64c-0.71,0-1.28,0.58-1.28,1.28v5.23
				c0,0.71,0.58,1.28,1.28,1.28v2.11l2.09-2.11h0.99v-2.19C25.19,21.5,25.76,20.92,26.47,20.92z"/>
			<path class="st1" d="M25.19,24.4v3.04c0,0.71,0.58,1.28,1.28,1.28h5.56l2.09,2.11v-2.11c0.71,0,1.28-0.58,1.28-1.28v-5.23
				c0-0.71-0.58-1.28-1.28-1.28h-3.08"/>
		</g>
		<circle class="st2" cx="28.56" cy="24.72" r="0.17"/>
		<circle class="st2" cx="30.4" cy="24.72" r="0.17"/>
		<circle class="st2" cx="32.26" cy="24.72" r="0.17"/>
	</g>
	<rect x="16.79" y="32.49" class="st3" width="22.66" height="8.67"/>
	<text transform="matrix(1 0 0 1 17.2551 40.0874)" class="st4 st5">Chat</text>
</g>
</svg>
