<svg id="visual" viewBox="0 0 1512 982" width="1512" height="982" xmlns="http://www.w3.org/2000/svg" xmlns:xlink="http://www.w3.org/1999/xlink" version="1.1"><g stroke-width="1" stroke-linejoin="bevel"><path d="M752 475.9L655.8 531.1L772 572.1Z" fill="#779787" stroke="#779787"></path><path d="M655.8 531.1L742 648.4L772 572.1Z" fill="#67877d" stroke="#67877d"></path><path d="M884.2 644.4L888.2 511.1L772 572.1Z" fill="#779787" stroke="#779787"></path><path d="M772 572.1L888.2 511.1L752 475.9Z" fill="#8aa790" stroke="#8aa790"></path><path d="M742 648.4L884.2 644.4L772 572.1Z" fill="#5a7772" stroke="#5a7772"></path><path d="M655.8 531.1L516.6 615.1L742 648.4Z" fill="#9fb798" stroke="#9fb798"></path><path d="M562.8 752.4L760 769.7L742 648.4Z" fill="#67877d" stroke="#67877d"></path><path d="M742 648.4L760 769.7L884.2 644.4Z" fill="#4e6766" stroke="#4e6766"></path><path d="M792 232.6L537.8 359.9L752 475.9Z" fill="#779787" stroke="#779787"></path><path d="M752 475.9L537.8 359.9L655.8 531.1Z" fill="#546f6c" stroke="#546f6c"></path><path d="M655.8 531.1L537.8 359.9L516.6 615.1Z" fill="#809f8b" stroke="#809f8b"></path><path d="M953.2 400.9L894.2 332.6L888.2 511.1Z" fill="#94af94" stroke="#94af94"></path><path d="M888.2 511.1L894.2 332.6L752 475.9Z" fill="#4e6766" stroke="#4e6766"></path><path d="M1036.4 616.1L953.2 400.9L888.2 511.1Z" fill="#67877d" stroke="#67877d"></path><path d="M516.6 615.1L562.8 752.4L742 648.4Z" fill="#8aa790" stroke="#8aa790"></path><path d="M894.2 332.6L792 232.6L752 475.9Z" fill="#809f8b" stroke="#809f8b"></path><path d="M792 232.6L539.8 271.6L537.8 359.9Z" fill="#5a7772" stroke="#5a7772"></path><path d="M537.8 359.9L382.6 437.9L516.6 615.1Z" fill="#546f6c" stroke="#546f6c"></path><path d="M1033.4 731.4L1036.4 616.1L884.2 644.4Z" fill="#809f8b" stroke="#809f8b"></path><path d="M884.2 644.4L1036.4 616.1L888.2 511.1Z" fill="#4e6766" stroke="#4e6766"></path><path d="M355.4 297.6L382.6 437.9L537.8 359.9Z" fill="#546f6c" stroke="#546f6c"></path><path d="M516.6 615.1L453.6 764.4L562.8 752.4Z" fill="#809f8b" stroke="#809f8b"></path><path d="M443.6 799.7L590.8 860.7L562.8 752.4Z" fill="#67877d" stroke="#67877d"></path><path d="M562.8 752.4L590.8 860.7L760 769.7Z" fill="#94af94" stroke="#94af94"></path><path d="M321.4 636.4L453.6 764.4L516.6 615.1Z" fill="#809f8b" stroke="#809f8b"></path><path d="M685 982L911.2 832.7L760 769.7Z" fill="#8aa790" stroke="#8aa790"></path><path d="M760 769.7L911.2 832.7L884.2 644.4Z" fill="#4e6766" stroke="#4e6766"></path><path d="M911.2 832.7L1033.4 731.4L884.2 644.4Z" fill="#607f78" stroke="#607f78"></path><path d="M1036.4 616.1L1063.4 375.9L953.2 400.9Z" fill="#67877d" stroke="#67877d"></path><path d="M953.2 400.9L1022.4 290.6L894.2 332.6Z" fill="#9fb798" stroke="#9fb798"></path><path d="M894.2 332.6L897.2 107.3L792 232.6Z" fill="#779787" stroke="#779787"></path><path d="M1170.6 520.1L1063.4 375.9L1036.4 616.1Z" fill="#8aa790" stroke="#8aa790"></path><path d="M453.6 764.4L443.6 799.7L562.8 752.4Z" fill="#546f6c" stroke="#546f6c"></path><path d="M361.4 823.7L443.6 799.7L453.6 764.4Z" fill="#779787" stroke="#779787"></path><path d="M1063.4 375.9L1022.4 290.6L953.2 400.9Z" fill="#546f6c" stroke="#546f6c"></path><path d="M382.6 437.9L316.4 612.1L516.6 615.1Z" fill="#8aa790" stroke="#8aa790"></path><path d="M316.4 612.1L321.4 636.4L516.6 615.1Z" fill="#8aa790" stroke="#8aa790"></path><path d="M645.8 86.3L514.6 150.3L539.8 271.6Z" fill="#67877d" stroke="#67877d"></path><path d="M384.6 250.6L355.4 297.6L537.8 359.9Z" fill="#5a7772" stroke="#5a7772"></path><path d="M645.8 86.3L539.8 271.6L792 232.6Z" fill="#607f78" stroke="#607f78"></path><path d="M384.6 250.6L537.8 359.9L539.8 271.6Z" fill="#6f8f82" stroke="#6f8f82"></path><path d="M382.6 437.9L255.4 347.9L316.4 612.1Z" fill="#5a7772" stroke="#5a7772"></path><path d="M514.6 150.3L384.6 250.6L539.8 271.6Z" fill="#94af94" stroke="#94af94"></path><path d="M897.2 107.3L814 103.3L792 232.6Z" fill="#8aa790" stroke="#8aa790"></path><path d="M1244.6 669.4L1170.6 520.1L1036.4 616.1Z" fill="#6f8f82" stroke="#6f8f82"></path><path d="M1211.6 208.3L1029.4 89.3L1022.4 290.6Z" fill="#5a7772" stroke="#5a7772"></path><path d="M537.8 982L685 982L590.8 860.7Z" fill="#5a7772" stroke="#5a7772"></path><path d="M590.8 860.7L685 982L760 769.7Z" fill="#67877d" stroke="#67877d"></path><path d="M814 103.3L645.8 86.3L792 232.6Z" fill="#8aa790" stroke="#8aa790"></path><path d="M1022.4 290.6L897.2 107.3L894.2 332.6Z" fill="#6f8f82" stroke="#6f8f82"></path><path d="M814 103.3L735 0L645.8 86.3Z" fill="#8aa790" stroke="#8aa790"></path><path d="M321.4 636.4L361.4 823.7L453.6 764.4Z" fill="#5a7772" stroke="#5a7772"></path><path d="M465.6 982L537.8 982L590.8 860.7Z" fill="#9fb798" stroke="#9fb798"></path><path d="M465.6 982L590.8 860.7L443.6 799.7Z" fill="#6f8f82" stroke="#6f8f82"></path><path d="M685 982L933.2 982L911.2 832.7Z" fill="#607f78" stroke="#607f78"></path><path d="M911.2 832.7L1122.4 845.7L1033.4 731.4Z" fill="#6f8f82" stroke="#6f8f82"></path><path d="M1033.4 731.4L1244.6 669.4L1036.4 616.1Z" fill="#9fb798" stroke="#9fb798"></path><path d="M300.4 200.3L255.4 347.9L355.4 297.6Z" fill="#94af94" stroke="#94af94"></path><path d="M355.4 297.6L255.4 347.9L382.6 437.9Z" fill="#779787" stroke="#779787"></path><path d="M316.4 612.1L153.2 596.1L321.4 636.4Z" fill="#546f6c" stroke="#546f6c"></path><path d="M321.4 636.4L131.2 795.7L361.4 823.7Z" fill="#9fb798" stroke="#9fb798"></path><path d="M300.4 200.3L355.4 297.6L384.6 250.6Z" fill="#779787" stroke="#779787"></path><path d="M1084.4 982L1122.4 845.7L911.2 832.7Z" fill="#779787" stroke="#779787"></path><path d="M361.4 823.7L465.6 982L443.6 799.7Z" fill="#809f8b" stroke="#809f8b"></path><path d="M979.2 0L735 0L814 103.3Z" fill="#5a7772" stroke="#5a7772"></path><path d="M645.8 86.3L436.6 0L514.6 150.3Z" fill="#9fb798" stroke="#9fb798"></path><path d="M436.6 0L300.4 200.3L514.6 150.3Z" fill="#8aa790" stroke="#8aa790"></path><path d="M514.6 150.3L300.4 200.3L384.6 250.6Z" fill="#546f6c" stroke="#546f6c"></path><path d="M735 0L651.8 0L645.8 86.3Z" fill="#607f78" stroke="#607f78"></path><path d="M1022.4 290.6L1029.4 89.3L897.2 107.3Z" fill="#607f78" stroke="#607f78"></path><path d="M897.2 107.3L979.2 0L814 103.3Z" fill="#8aa790" stroke="#8aa790"></path><path d="M1211.6 208.3L1022.4 290.6L1063.4 375.9Z" fill="#9fb798" stroke="#9fb798"></path><path d="M1222.6 772.7L1244.6 669.4L1033.4 731.4Z" fill="#546f6c" stroke="#546f6c"></path><path d="M1170.6 520.1L1278.6 397.9L1063.4 375.9Z" fill="#809f8b" stroke="#809f8b"></path><path d="M1122.4 845.7L1222.6 772.7L1033.4 731.4Z" fill="#4e6766" stroke="#4e6766"></path><path d="M117.2 392.9L153.2 596.1L255.4 347.9Z" fill="#5a7772" stroke="#5a7772"></path><path d="M255.4 347.9L153.2 596.1L316.4 612.1Z" fill="#5a7772" stroke="#5a7772"></path><path d="M361.4 823.7L293.4 982L465.6 982Z" fill="#8aa790" stroke="#8aa790"></path><path d="M1353.8 401.9L1278.6 397.9L1381.8 552.1Z" fill="#67877d" stroke="#67877d"></path><path d="M933.2 982L1084.4 982L911.2 832.7Z" fill="#8aa790" stroke="#8aa790"></path><path d="M1122.4 845.7L1276.6 982L1222.6 772.7Z" fill="#6f8f82" stroke="#6f8f82"></path><path d="M1237.6 222.6L1211.6 208.3L1063.4 375.9Z" fill="#5a7772" stroke="#5a7772"></path><path d="M1027.4 0L979.2 0L1029.4 89.3Z" fill="#94af94" stroke="#94af94"></path><path d="M1029.4 89.3L979.2 0L897.2 107.3Z" fill="#67877d" stroke="#67877d"></path><path d="M1278.6 397.9L1237.6 222.6L1063.4 375.9Z" fill="#94af94" stroke="#94af94"></path><path d="M1188.6 0L1027.4 0L1029.4 89.3Z" fill="#809f8b" stroke="#809f8b"></path><path d="M651.8 0L436.6 0L645.8 86.3Z" fill="#546f6c" stroke="#546f6c"></path><path d="M1188.6 0L1029.4 89.3L1211.6 208.3Z" fill="#546f6c" stroke="#546f6c"></path><path d="M140.2 223.6L255.4 347.9L300.4 200.3Z" fill="#8aa790" stroke="#8aa790"></path><path d="M140.2 223.6L117.2 392.9L255.4 347.9Z" fill="#67877d" stroke="#67877d"></path><path d="M222.2 982L293.4 982L361.4 823.7Z" fill="#607f78" stroke="#607f78"></path><path d="M1222.6 772.7L1342.8 704.4L1244.6 669.4Z" fill="#607f78" stroke="#607f78"></path><path d="M1381.8 552.1L1278.6 397.9L1170.6 520.1Z" fill="#6f8f82" stroke="#6f8f82"></path><path d="M1401.8 786.7L1342.8 704.4L1222.6 772.7Z" fill="#4e6766" stroke="#4e6766"></path><path d="M85.2 675.4L131.2 795.7L153.2 596.1Z" fill="#6f8f82" stroke="#6f8f82"></path><path d="M153.2 596.1L131.2 795.7L321.4 636.4Z" fill="#546f6c" stroke="#546f6c"></path><path d="M1278.6 397.9L1287.8 202.3L1237.6 222.6Z" fill="#67877d" stroke="#67877d"></path><path d="M1381.8 552.1L1170.6 520.1L1244.6 669.4Z" fill="#5a7772" stroke="#5a7772"></path><path d="M0 511.1L85.2 675.4L153.2 596.1Z" fill="#5a7772" stroke="#5a7772"></path><path d="M1415.8 262.6L1287.8 202.3L1278.6 397.9Z" fill="#8aa790" stroke="#8aa790"></path><path d="M1237.6 222.6L1287.8 202.3L1211.6 208.3Z" fill="#809f8b" stroke="#809f8b"></path><path d="M96.2 116.3L140.2 223.6L300.4 200.3Z" fill="#607f78" stroke="#607f78"></path><path d="M1342.8 704.4L1381.8 552.1L1244.6 669.4Z" fill="#546f6c" stroke="#546f6c"></path><path d="M131.2 795.7L222.2 982L361.4 823.7Z" fill="#809f8b" stroke="#809f8b"></path><path d="M436.6 0L282.4 0L300.4 200.3Z" fill="#546f6c" stroke="#546f6c"></path><path d="M1287.8 202.3L1188.6 0L1211.6 208.3Z" fill="#6f8f82" stroke="#6f8f82"></path><path d="M1084.4 982L1276.6 982L1122.4 845.7Z" fill="#607f78" stroke="#607f78"></path><path d="M1342.8 704.4L1512 631.1L1381.8 552.1Z" fill="#4e6766" stroke="#4e6766"></path><path d="M0 469.9L0 511.1L117.2 392.9Z" fill="#94af94" stroke="#94af94"></path><path d="M117.2 392.9L0 511.1L153.2 596.1Z" fill="#6f8f82" stroke="#6f8f82"></path><path d="M85.2 675.4L0 673.4L131.2 795.7Z" fill="#8aa790" stroke="#8aa790"></path><path d="M0 339.6L0 469.9L117.2 392.9Z" fill="#6f8f82" stroke="#6f8f82"></path><path d="M1317.8 982L1401.8 786.7L1222.6 772.7Z" fill="#809f8b" stroke="#809f8b"></path><path d="M0 511.1L0 673.4L85.2 675.4Z" fill="#546f6c" stroke="#546f6c"></path><path d="M131.2 795.7L0 912.7L222.2 982Z" fill="#607f78" stroke="#607f78"></path><path d="M1353.8 401.9L1415.8 262.6L1278.6 397.9Z" fill="#779787" stroke="#779787"></path><path d="M1287.8 202.3L1340.8 0L1188.6 0Z" fill="#607f78" stroke="#607f78"></path><path d="M1512 442.9L1415.8 262.6L1353.8 401.9Z" fill="#546f6c" stroke="#546f6c"></path><path d="M1512 442.9L1353.8 401.9L1381.8 552.1Z" fill="#809f8b" stroke="#809f8b"></path><path d="M0 194.3L0 339.6L140.2 223.6Z" fill="#94af94" stroke="#94af94"></path><path d="M140.2 223.6L0 339.6L117.2 392.9Z" fill="#779787" stroke="#779787"></path><path d="M1276.6 982L1317.8 982L1222.6 772.7Z" fill="#546f6c" stroke="#546f6c"></path><path d="M191.2 0L96.2 116.3L300.4 200.3Z" fill="#94af94" stroke="#94af94"></path><path d="M282.4 0L191.2 0L300.4 200.3Z" fill="#546f6c" stroke="#546f6c"></path><path d="M96.2 116.3L0 194.3L140.2 223.6Z" fill="#4e6766" stroke="#4e6766"></path><path d="M0 0L0 194.3L96.2 116.3Z" fill="#5a7772" stroke="#5a7772"></path><path d="M1512 631.1L1512 442.9L1381.8 552.1Z" fill="#9fb798" stroke="#9fb798"></path><path d="M1512 667.4L1342.8 704.4L1401.8 786.7Z" fill="#94af94" stroke="#94af94"></path><path d="M1512 667.4L1512 631.1L1342.8 704.4Z" fill="#546f6c" stroke="#546f6c"></path><path d="M1512 830.7L1512 667.4L1401.8 786.7Z" fill="#4e6766" stroke="#4e6766"></path><path d="M0 673.4L0 912.7L131.2 795.7Z" fill="#607f78" stroke="#607f78"></path><path d="M1512 175.3L1340.8 0L1287.8 202.3Z" fill="#67877d" stroke="#67877d"></path><path d="M1512 175.3L1287.8 202.3L1415.8 262.6Z" fill="#5a7772" stroke="#5a7772"></path><path d="M1512 982L1512 830.7L1401.8 786.7Z" fill="#779787" stroke="#779787"></path><path d="M1512 442.9L1512 227.6L1415.8 262.6Z" fill="#5a7772" stroke="#5a7772"></path><path d="M0 912.7L0 982L222.2 982Z" fill="#5a7772" stroke="#5a7772"></path><path d="M1512 227.6L1512 175.3L1415.8 262.6Z" fill="#67877d" stroke="#67877d"></path><path d="M191.2 0L0 0L96.2 116.3Z" fill="#8aa790" stroke="#8aa790"></path><path d="M1317.8 982L1512 982L1401.8 786.7Z" fill="#5a7772" stroke="#5a7772"></path><path d="M1512 175.3L1512 0L1340.8 0Z" fill="#5a7772" stroke="#5a7772"></path></g></svg>